<svg xmlns="http://www.w3.org/2000/svg" xmlns:xlink="http://www.w3.org/1999/xlink" width="500" zoomAndPan="magnify" viewBox="0 0 375 374.999991" height="500" preserveAspectRatio="xMidYMid meet" version="1.0"><path fill="#145da0" d="M 169.375 166.34375 C 157.910156 170.394531 147.792969 172.980469 133.253906 177.59375 C 138.953125 250.089844 205.6875 221.1875 169.375 166.34375 Z M 166.066406 153.191406 C 166.261719 143.117188 165.742188 133.410156 170.019531 123.832031 C 174.875 113.5625 175.652344 104.558594 172.964844 89.644531 C 168.078125 62.523438 157.746094 45.613281 143.792969 41.902344 C 114.035156 37.476562 110.347656 67.242188 109.625 89.011719 C 107.984375 101.195312 118.097656 153.339844 130.324219 162.171875 C 142.34375 159.042969 154.144531 155.96875 166.066406 153.1875 Z M 166.066406 153.191406 " fill-opacity="1" fill-rule="nonzero"/><path fill="#145da0" d="M 206.023438 253.6875 C 217.488281 257.738281 227.605469 260.324219 242.144531 264.9375 C 236.445312 337.429688 169.710938 308.527344 206.023438 253.6875 Z M 209.332031 240.53125 C 209.136719 230.460938 209.65625 220.75 205.378906 211.175781 C 200.523438 200.90625 199.746094 191.898438 202.433594 176.988281 C 207.320312 149.867188 217.652344 132.957031 231.605469 129.242188 C 261.363281 124.820312 265.050781 154.582031 265.769531 176.355469 C 267.414062 188.539062 257.300781 240.683594 245.070312 249.515625 C 233.054688 246.382812 221.253906 243.3125 209.332031 240.53125 Z M 209.332031 240.53125 " fill-opacity="1" fill-rule="nonzero"/></svg>