<svg xmlns="http://www.w3.org/2000/svg" xmlns:xlink="http://www.w3.org/1999/xlink" width="500" zoomAndPan="magnify" viewBox="0 0 375 374.999991" height="500" preserveAspectRatio="xMidYMid meet" version="1.0"><path fill="#145da0" d="M 313.515625 122.734375 L 309.96875 119.210938 C 300.859375 110.132812 294.171875 102.796875 288.273438 96.324219 C 273.003906 78.957031 256.09375 63.375 237.546875 49.570312 C 237.039062 49.070312 236.496094 48.609375 235.917969 48.1875 C 235.339844 47.765625 234.730469 47.390625 234.097656 47.0625 C 233.464844 46.734375 232.808594 46.453125 232.128906 46.222656 C 231.453125 45.992188 230.765625 45.816406 230.0625 45.691406 C 229.355469 45.5625 228.648438 45.492188 227.933594 45.472656 C 227.21875 45.453125 226.507812 45.488281 225.796875 45.574219 C 225.089844 45.664062 224.390625 45.804688 223.703125 45.996094 C 223.015625 46.191406 222.34375 46.433594 221.695312 46.730469 C 220.988281 47.191406 220.3125 47.699219 219.675781 48.253906 C 219.039062 48.808594 218.445312 49.40625 217.894531 50.042969 C 217.339844 50.683594 216.835938 51.359375 216.375 52.066406 C 215.917969 52.777344 215.511719 53.515625 215.15625 54.28125 C 214.800781 55.050781 214.5 55.835938 214.257812 56.644531 C 214.011719 57.453125 213.824219 58.277344 213.695312 59.113281 C 213.566406 59.949219 213.496094 60.789062 213.484375 61.632812 C 213.472656 62.476562 213.519531 63.320312 213.628906 64.15625 C 213.871094 70.453125 214.109375 75.421875 214.296875 79.457031 C 215.082031 95.933594 215.082031 95.933594 211.78125 107.808594 C 210.648438 111.875 209.152344 117.25 207.207031 124.921875 C 199.191406 156.484375 178.664062 176.707031 160.550781 194.546875 C 159.632812 195.453125 158.78125 196.3125 157.882812 197.199219 C 155.242188 194.269531 152.660156 191.496094 150.148438 188.933594 C 151.359375 187.785156 152.539062 186.652344 153.582031 185.589844 C 153.796875 185.371094 153.992188 185.128906 154.160156 184.867188 C 154.332031 184.609375 154.476562 184.332031 154.589844 184.046875 C 154.707031 183.757812 154.792969 183.460938 154.851562 183.152344 C 154.910156 182.847656 154.9375 182.539062 154.933594 182.230469 C 154.933594 181.917969 154.898438 181.609375 154.835938 181.304688 C 154.773438 181 154.679688 180.707031 154.558594 180.417969 C 154.4375 180.132812 154.289062 179.859375 154.117188 179.605469 C 153.941406 179.347656 153.742188 179.109375 153.523438 178.890625 C 153.300781 178.671875 153.058594 178.476562 152.800781 178.308594 C 152.539062 178.136719 152.265625 177.992188 151.980469 177.875 C 151.691406 177.757812 151.394531 177.671875 151.089844 177.613281 C 150.785156 177.554688 150.476562 177.523438 150.164062 177.527344 C 149.855469 177.527344 149.546875 177.5625 149.242188 177.625 C 148.9375 177.6875 148.644531 177.777344 148.355469 177.898438 C 148.070312 178.019531 147.800781 178.167969 147.542969 178.339844 C 147.285156 178.515625 147.046875 178.714844 146.828125 178.933594 C 145.207031 180.582031 143.277344 182.390625 141.347656 184.203125 C 138.609375 186.773438 135.773438 189.433594 133.722656 191.714844 C 133.515625 191.949219 133.332031 192.195312 133.171875 192.464844 C 133.011719 192.734375 132.882812 193.011719 132.777344 193.308594 C 132.671875 193.601562 132.597656 193.902344 132.554688 194.210938 C 132.511719 194.519531 132.496094 194.828125 132.511719 195.136719 C 132.527344 195.449219 132.574219 195.757812 132.652344 196.058594 C 132.730469 196.359375 132.832031 196.652344 132.96875 196.933594 C 133.101562 197.214844 133.261719 197.480469 133.449219 197.726562 C 133.632812 197.976562 133.84375 198.207031 134.074219 198.414062 C 134.304688 198.625 134.554688 198.808594 134.824219 198.964844 C 135.089844 199.125 135.371094 199.257812 135.664062 199.359375 C 135.957031 199.464844 136.257812 199.539062 136.566406 199.582031 C 136.875 199.628906 137.183594 199.644531 137.492188 199.625 C 137.804688 199.609375 138.109375 199.5625 138.410156 199.488281 C 138.714844 199.410156 139.003906 199.304688 139.285156 199.171875 C 139.566406 199.035156 139.832031 198.875 140.082031 198.691406 C 140.328125 198.503906 140.558594 198.292969 140.765625 198.0625 C 141.476562 197.273438 142.351562 196.386719 143.28125 195.46875 C 145.832031 198.074219 148.480469 200.925781 151.203125 203.953125 C 149.441406 205.773438 147.675781 207.59375 146.058594 209.398438 C 143.496094 212.261719 140.667969 215.261719 137.648438 218.371094 C 136.1875 219.757812 134.722656 221.15625 133.257812 222.570312 C 130.636719 219.660156 128.070312 216.910156 125.582031 214.363281 C 126.792969 213.210938 127.96875 212.078125 129.011719 211.015625 C 129.230469 210.792969 129.421875 210.550781 129.589844 210.292969 C 129.757812 210.03125 129.902344 209.757812 130.015625 209.46875 C 130.132812 209.179688 130.21875 208.882812 130.273438 208.578125 C 130.332031 208.273438 130.359375 207.964844 130.355469 207.65625 C 130.351562 207.34375 130.316406 207.035156 130.253906 206.734375 C 130.1875 206.429688 130.097656 206.132812 129.976562 205.847656 C 129.851562 205.5625 129.707031 205.292969 129.53125 205.035156 C 129.355469 204.78125 129.15625 204.542969 128.9375 204.324219 C 128.714844 204.105469 128.476562 203.914062 128.214844 203.742188 C 127.957031 203.574219 127.683594 203.429688 127.394531 203.3125 C 127.109375 203.195312 126.8125 203.109375 126.507812 203.050781 C 126.203125 202.992188 125.894531 202.960938 125.585938 202.964844 C 125.277344 202.964844 124.96875 202.996094 124.664062 203.058594 C 124.363281 203.121094 124.066406 203.210938 123.78125 203.332031 C 123.496094 203.453125 123.222656 203.601562 122.964844 203.773438 C 122.707031 203.945312 122.46875 204.144531 122.25 204.363281 C 120.617188 206.03125 118.667969 207.855469 116.722656 209.6875 C 114 212.242188 111.191406 214.882812 109.15625 217.140625 C 108.945312 217.371094 108.761719 217.621094 108.601562 217.886719 C 108.441406 218.15625 108.308594 218.4375 108.203125 218.730469 C 108.097656 219.023438 108.023438 219.328125 107.976562 219.636719 C 107.929688 219.945312 107.917969 220.253906 107.933594 220.566406 C 107.949219 220.878906 107.992188 221.183594 108.070312 221.488281 C 108.144531 221.789062 108.25 222.082031 108.386719 222.363281 C 108.519531 222.644531 108.679688 222.914062 108.867188 223.164062 C 109.050781 223.414062 109.261719 223.640625 109.492188 223.851562 C 109.722656 224.058594 109.972656 224.246094 110.242188 224.40625 C 110.507812 224.5625 110.789062 224.695312 111.085938 224.800781 C 111.378906 224.902344 111.679688 224.976562 111.988281 225.023438 C 112.296875 225.066406 112.605469 225.082031 112.917969 225.066406 C 113.230469 225.046875 113.535156 225 113.839844 224.921875 C 114.140625 224.847656 114.433594 224.742188 114.714844 224.605469 C 114.996094 224.46875 115.261719 224.308594 115.507812 224.121094 C 115.757812 223.933594 115.988281 223.722656 116.195312 223.492188 C 116.90625 222.703125 117.78125 221.816406 118.714844 220.898438 C 121.207031 223.445312 123.796875 226.234375 126.460938 229.191406 C 122.953125 232.648438 119.597656 236.015625 116.507812 239.152344 C 114.851562 240.730469 113.171875 242.332031 111.476562 243.9375 C 108.957031 241.148438 106.492188 238.503906 104.09375 236.050781 L 105.722656 234.511719 C 105.949219 234.300781 106.152344 234.0625 106.335938 233.808594 C 106.515625 233.554688 106.667969 233.285156 106.796875 233 C 106.921875 232.714844 107.019531 232.421875 107.089844 232.117188 C 107.160156 231.8125 107.195312 231.503906 107.207031 231.191406 C 107.214844 230.882812 107.191406 230.570312 107.136719 230.265625 C 107.085938 229.957031 107.003906 229.65625 106.890625 229.367188 C 106.78125 229.074219 106.640625 228.796875 106.472656 228.535156 C 106.308594 228.269531 106.117188 228.023438 105.902344 227.796875 C 105.6875 227.574219 105.453125 227.371094 105.199219 227.191406 C 104.941406 227.011719 104.671875 226.855469 104.386719 226.730469 C 104.105469 226.605469 103.808594 226.507812 103.503906 226.4375 C 103.199219 226.371094 102.894531 226.332031 102.582031 226.324219 C 102.269531 226.316406 101.960938 226.339844 101.652344 226.394531 C 101.347656 226.449219 101.046875 226.53125 100.757812 226.644531 C 100.464844 226.757812 100.191406 226.898438 99.925781 227.0625 C 99.664062 227.230469 99.417969 227.421875 99.195312 227.636719 L 96.441406 230.234375 C 93.300781 233.1875 90.046875 236.246094 87.703125 238.84375 C 87.496094 239.078125 87.3125 239.324219 87.152344 239.59375 C 86.996094 239.859375 86.863281 240.140625 86.761719 240.433594 C 86.65625 240.726562 86.582031 241.027344 86.535156 241.335938 C 86.492188 241.644531 86.476562 241.953125 86.496094 242.265625 C 86.511719 242.578125 86.558594 242.882812 86.632812 243.183594 C 86.710938 243.484375 86.816406 243.777344 86.949219 244.058594 C 87.082031 244.339844 87.242188 244.605469 87.429688 244.855469 C 87.613281 245.105469 87.824219 245.332031 88.054688 245.542969 C 88.285156 245.75 88.53125 245.933594 88.800781 246.09375 C 89.066406 246.253906 89.347656 246.386719 89.640625 246.488281 C 89.933594 246.59375 90.234375 246.667969 90.542969 246.714844 C 90.847656 246.757812 91.160156 246.773438 91.46875 246.757812 C 91.78125 246.742188 92.085938 246.695312 92.386719 246.617188 C 92.6875 246.542969 92.980469 246.4375 93.261719 246.304688 C 93.542969 246.171875 93.808594 246.011719 94.058594 245.824219 C 94.304688 245.640625 94.535156 245.433594 94.742188 245.199219 C 95.460938 244.402344 96.328125 243.519531 97.242188 242.609375 C 99.613281 245.027344 102.070312 247.667969 104.59375 250.464844 L 104.570312 250.480469 C 90.792969 263.523438 76.617188 276.957031 64.683594 289.492188 C 64.144531 288.984375 63.683594 288.546875 63.4375 288.292969 C 62.882812 287.714844 62.285156 287.1875 61.640625 286.710938 C 60.996094 286.234375 60.316406 285.816406 59.601562 285.457031 C 58.886719 285.097656 58.144531 284.800781 57.378906 284.570312 C 56.609375 284.335938 55.832031 284.167969 55.035156 284.070312 C 54.242188 283.96875 53.445312 283.9375 52.644531 283.976562 C 51.84375 284.011719 51.050781 284.117188 50.269531 284.289062 C 49.488281 284.460938 48.726562 284.699219 47.984375 285.003906 C 47.242188 285.304688 46.53125 285.667969 45.851562 286.09375 C 43.765625 287.539062 37.40625 293.199219 43.121094 305.46875 C 44.109375 307.3125 45.269531 309.042969 46.597656 310.65625 C 47.746094 312.089844 48.792969 313.59375 49.730469 315.175781 C 51.53125 318.613281 60.371094 329.375 67.292969 330.9375 C 68.234375 331.152344 69.1875 331.253906 70.152344 331.253906 C 71.582031 331.25 72.976562 331.027344 74.335938 330.585938 C 75.695312 330.148438 76.953125 329.511719 78.117188 328.679688 C 79.683594 327.585938 80.960938 326.21875 81.949219 324.582031 C 82.933594 322.945312 83.546875 321.179688 83.785156 319.28125 C 83.882812 316.253906 83.199219 313.414062 81.734375 310.761719 C 84.761719 308.226562 89.785156 303.972656 95.097656 299.363281 C 95.210938 299.75 95.292969 300.152344 95.421875 300.535156 C 95.734375 301.550781 96.089844 302.550781 96.484375 303.539062 C 96.878906 304.523438 97.3125 305.492188 97.785156 306.445312 C 98.261719 307.398438 98.773438 308.328125 99.320312 309.238281 C 99.871094 310.148438 100.453125 311.035156 101.074219 311.894531 C 101.695312 312.757812 102.351562 313.59375 103.039062 314.402344 C 103.730469 315.210938 104.449219 315.992188 105.203125 316.742188 C 105.953125 317.492188 106.738281 318.210938 107.546875 318.898438 C 108.359375 319.585938 109.195312 320.238281 110.058594 320.855469 C 110.921875 321.472656 111.808594 322.058594 112.71875 322.601562 C 113.632812 323.148438 114.5625 323.660156 115.515625 324.128906 C 116.46875 324.597656 117.4375 325.03125 118.425781 325.421875 C 119.410156 325.816406 120.414062 326.164062 121.429688 326.476562 C 122.445312 326.785156 123.46875 327.054688 124.507812 327.28125 C 125.546875 327.507812 126.589844 327.691406 127.644531 327.835938 C 128.695312 327.976562 129.753906 328.074219 130.8125 328.128906 C 131.875 328.1875 132.933594 328.199219 133.996094 328.167969 C 138.582031 328.144531 143.089844 327.542969 147.519531 326.363281 C 165.351562 321.699219 179.117188 307.871094 193.6875 293.234375 C 199.160156 287.738281 204.816406 282.058594 210.703125 276.902344 C 227.78125 261.9375 237.105469 237.988281 233.375 218.652344 C 232.960938 216.332031 232.324219 214.074219 231.464844 211.878906 C 230.605469 209.6875 229.535156 207.597656 228.261719 205.617188 C 226.988281 203.636719 225.53125 201.796875 223.890625 200.105469 C 222.253906 198.414062 220.464844 196.898438 218.527344 195.558594 C 228.21875 188.589844 238.25 182.144531 248.613281 176.21875 C 265.019531 167.113281 275.609375 166.753906 291.636719 166.207031 C 298.851562 165.960938 307.03125 165.6875 316.984375 164.511719 C 323.214844 163.777344 331.773438 162.011719 334.109375 155.203125 C 337.207031 146.199219 327.269531 136.355469 313.515625 122.734375 Z M 123.003906 246.058594 C 126.414062 242.804688 129.722656 239.617188 132.925781 236.496094 C 134.855469 238.714844 136.820312 240.984375 138.8125 243.304688 C 136.042969 246.023438 133.488281 248.589844 131.421875 250.742188 C 129 253.371094 126.789062 256.160156 124.777344 259.113281 C 122.464844 256.425781 120.191406 253.800781 117.957031 251.238281 C 119.621094 249.519531 121.300781 247.792969 123.003906 246.058594 Z M 126.335938 275.441406 C 132.628906 282.695312 139.042969 289.855469 145.5625 296.554688 C 141.132812 297.644531 128.074219 299.652344 123.785156 286.757812 C 123.601562 284.78125 123.730469 282.828125 124.167969 280.898438 C 124.601562 278.964844 125.324219 277.144531 126.335938 275.441406 Z M 154.347656 291.933594 C 146.527344 284.0625 138.796875 275.363281 131.222656 266.585938 C 133.28125 263.277344 135.628906 260.183594 138.257812 257.3125 C 140.285156 255.195312 142.589844 252.875 145.011719 250.492188 C 153.183594 259.964844 161.554688 269.40625 170.109375 277.925781 C 165.195312 282.980469 159.941406 287.648438 154.347656 291.933594 Z M 178.578125 269.300781 C 177.984375 269.914062 177.375 270.542969 176.761719 271.171875 C 168.332031 262.769531 159.996094 253.347656 151.84375 243.890625 C 157.96875 237.867188 164.40625 232.199219 171.160156 226.886719 C 178.992188 235.949219 187.015625 244.917969 195.199219 253.019531 C 194.332031 253.914062 193.425781 254.796875 192.449219 255.648438 C 188.449219 259.136719 183.65625 264.070312 178.578125 269.300781 Z M 200.996094 245.410156 C 193.730469 238.140625 186.527344 230.148438 179.460938 221.996094 C 181.472656 220.671875 183.664062 219.765625 186.027344 219.285156 C 188.386719 218.800781 190.753906 218.769531 193.128906 219.195312 C 194.492188 219.550781 195.78125 220.078125 197 220.785156 C 198.21875 221.492188 199.320312 222.351562 200.300781 223.359375 C 201.285156 224.367188 202.113281 225.492188 202.789062 226.726562 C 203.464844 227.964844 203.964844 229.265625 204.28125 230.640625 C 204.628906 233.21875 204.523438 235.777344 203.957031 238.320312 C 203.390625 240.859375 202.40625 243.222656 200.996094 245.410156 Z M 145.652344 236.707031 C 143.632812 234.363281 141.644531 232.066406 139.683594 229.816406 C 141.304688 228.191406 142.882812 226.589844 144.417969 225.015625 C 149.546875 220.164062 154.355469 215.78125 158.496094 212.210938 C 160.609375 214.644531 162.753906 217.132812 164.933594 219.671875 C 160.796875 222.722656 153.105469 229.640625 145.652344 236.707031 Z M 72.628906 320.941406 C 72.164062 321.289062 71.648438 321.527344 71.082031 321.660156 C 70.515625 321.789062 69.949219 321.796875 69.382812 321.683594 C 64.769531 318.929688 61.015625 315.289062 58.121094 310.757812 C 56.949219 308.707031 55.625 306.757812 54.144531 304.917969 C 53.253906 303.816406 52.441406 302.660156 51.707031 301.445312 C 50.019531 297.832031 49.839844 294.867188 51.242188 293.898438 C 51.804688 293.546875 52.417969 293.378906 53.082031 293.398438 C 53.753906 293.40625 54.402344 293.542969 55.019531 293.804688 C 55.636719 294.066406 56.183594 294.441406 56.65625 294.917969 C 57.035156 295.3125 57.785156 296.023438 58.71875 296.898438 C 61.136719 299.074219 63.414062 301.386719 65.546875 303.84375 L 66.386719 304.972656 C 70.074219 308.761719 72.734375 313.167969 74.367188 318.199219 C 74.285156 318.757812 74.09375 319.277344 73.789062 319.753906 C 73.484375 320.234375 73.097656 320.628906 72.628906 320.941406 Z M 76.6875 302.613281 C 75.40625 300.902344 74.246094 299.507812 73.53125 298.726562 C 72.898438 297.8125 72.199219 296.953125 71.433594 296.148438 C 78.816406 288.390625 87.113281 280.242188 95.667969 272.035156 C 94.214844 277.308594 93.496094 282.679688 93.515625 288.148438 C 87.039062 293.855469 80.539062 299.378906 76.6875 302.613281 Z M 204.464844 269.761719 C 198.332031 275.132812 192.558594 280.933594 186.976562 286.539062 C 173.339844 300.234375 160.460938 313.171875 145.125 317.179688 C 126.03125 322.191406 110.054688 314.464844 104.414062 297.53125 C 100.84375 286.828125 104.363281 269.921875 111.816406 258.617188 C 114.207031 261.371094 116.640625 264.191406 119.113281 267.070312 L 119.5625 267.59375 C 115.53125 275.140625 112.714844 283.523438 114.789062 289.757812 C 115.183594 291.035156 115.675781 292.265625 116.269531 293.460938 C 116.863281 294.652344 117.554688 295.789062 118.335938 296.871094 C 119.117188 297.949219 119.980469 298.960938 120.925781 299.898438 C 121.875 300.835938 122.890625 301.6875 123.980469 302.460938 C 125.066406 303.230469 126.210938 303.90625 127.410156 304.488281 C 128.609375 305.070312 129.847656 305.550781 131.125 305.925781 C 132.402344 306.304688 133.703125 306.578125 135.023438 306.742188 C 136.347656 306.902344 137.671875 306.957031 139.003906 306.90625 C 142.152344 306.886719 145.25 306.46875 148.292969 305.652344 C 159.277344 302.796875 173.140625 288.511719 185.375 275.910156 C 190.3125 270.828125 194.972656 266.03125 198.679688 262.800781 C 210 252.929688 215.714844 239.917969 213.589844 228.851562 C 213.359375 227.761719 213.054688 226.691406 212.679688 225.644531 C 212.300781 224.59375 211.855469 223.574219 211.339844 222.585938 C 210.828125 221.597656 210.25 220.648438 209.605469 219.738281 C 208.964844 218.828125 208.261719 217.964844 207.503906 217.148438 C 206.742188 216.332031 205.933594 215.570312 205.070312 214.867188 C 204.207031 214.160156 203.304688 213.515625 202.355469 212.933594 C 201.402344 212.351562 200.421875 211.832031 199.402344 211.382812 C 198.382812 210.933594 197.335938 210.554688 196.265625 210.246094 C 188.863281 207.644531 180.914062 210.324219 173.105469 214.628906 C 172.859375 214.347656 172.613281 214.058594 172.367188 213.777344 C 170.160156 211.207031 167.988281 208.6875 165.851562 206.214844 C 167.285156 205.082031 168.804688 204.082031 170.410156 203.214844 C 173.96875 201.421875 177.679688 200.039062 181.546875 199.070312 C 185.410156 198.101562 189.335938 197.566406 193.320312 197.46875 C 197.527344 197.449219 201.617188 198.132812 205.59375 199.511719 C 206.765625 199.875 207.90625 200.3125 209.015625 200.828125 C 210.125 201.347656 211.195312 201.9375 212.226562 202.601562 C 213.257812 203.265625 214.234375 204 215.164062 204.800781 C 216.09375 205.597656 216.964844 206.457031 217.777344 207.375 C 218.585938 208.296875 219.332031 209.265625 220.007812 210.289062 C 220.6875 211.308594 221.292969 212.371094 221.824219 213.476562 C 222.355469 214.582031 222.808594 215.71875 223.1875 216.886719 C 223.5625 218.054688 223.855469 219.242188 224.070312 220.449219 C 227.140625 236.378906 218.894531 257.117188 204.464844 269.761719 Z M 291.3125 156.726562 C 275.167969 157.273438 262.417969 157.707031 244.011719 167.925781 C 231.921875 174.855469 220.253906 182.441406 209.015625 190.679688 C 208.917969 190.644531 208.828125 190.597656 208.730469 190.5625 C 203.808594 188.925781 198.753906 188.070312 193.566406 187.996094 C 188.382812 187.921875 183.304688 188.632812 178.335938 190.128906 C 193.636719 174.25 209.449219 154.613281 216.390625 127.257812 C 218.316406 119.683594 219.792969 114.371094 220.914062 110.351562 C 222.515625 105.691406 223.566406 100.914062 224.066406 96.011719 C 224.566406 91.113281 224.503906 86.21875 223.878906 81.332031 C 241.523438 100.9375 278.507812 140 294.328125 156.617188 C 293.320312 156.652344 292.28125 156.691406 291.3125 156.726562 Z M 325.148438 152.117188 C 324.972656 152.625 322.894531 154.261719 315.875 155.085938 C 312.625 155.472656 309.613281 155.734375 306.707031 155.949219 C 295.636719 144.710938 230.667969 75.507812 223.199219 66.292969 C 223.164062 65.464844 223.132812 64.667969 223.097656 63.789062 C 222.972656 63.003906 222.945312 62.21875 223.015625 61.425781 C 223.082031 60.632812 223.246094 59.863281 223.503906 59.109375 C 223.757812 58.359375 224.101562 57.648438 224.53125 56.980469 C 224.960938 56.3125 225.464844 55.707031 226.039062 55.160156 C 227.777344 54.261719 230.621094 56.207031 231.761719 57.089844 C 249.863281 70.558594 266.367188 85.769531 281.269531 102.722656 C 287.246094 109.273438 294.015625 116.695312 303.277344 125.929688 L 306.851562 129.476562 C 314.125 136.6875 326.308594 148.75 325.148438 152.117188 Z M 325.148438 152.117188 " fill-opacity="1" fill-rule="nonzero"/></svg>