<svg xmlns="http://www.w3.org/2000/svg" xmlns:xlink="http://www.w3.org/1999/xlink" width="500" zoomAndPan="magnify" viewBox="0 0 375 374.999991" height="500" preserveAspectRatio="xMidYMid meet" version="1.0"><path fill="#145da0" d="M 294.277344 194.6875 L 245.058594 257.359375 C 233.234375 272.402344 217.308594 270.375 209.585938 252.878906 L 206.707031 246.371094 L 212.78125 292.832031 L 234.40625 292.832031 C 237.285156 292.832031 239.574219 295.019531 239.574219 297.898438 L 239.574219 318.488281 C 239.574219 321.261719 237.230469 323.554688 234.460938 323.554688 L 60.597656 323.554688 C 57.773438 323.554688 55.484375 321.367188 55.484375 318.488281 L 55.484375 297.898438 C 55.484375 295.125 57.773438 292.832031 60.648438 292.832031 L 82.277344 292.832031 L 88.347656 246.371094 L 78.066406 273.257812 C 76.042969 278.535156 69.863281 283.550781 64.378906 284.402344 L 61.074219 284.9375 C 55.535156 285.789062 48.183594 282.964844 44.667969 278.644531 L 42.59375 276.03125 C 39.078125 271.710938 37.796875 263.921875 39.824219 258.640625 L 74.394531 168.550781 C 78.441406 157.988281 90.957031 149.453125 102.144531 149.453125 L 192.910156 149.453125 C 204.203125 149.453125 216.667969 158.09375 220.71875 168.601562 L 234.566406 204.714844 L 261.945312 169.5625 C 265.460938 165.082031 272.757812 162.09375 278.40625 162.839844 L 286.769531 164.070312 L 327.570312 116.914062 C 329.433594 114.78125 332.683594 114.621094 334.761719 116.433594 C 336.894531 118.25 337.160156 121.503906 335.292969 123.636719 L 294.226562 171.054688 L 296.730469 177.191406 C 298.859375 182.417969 297.742188 190.257812 294.277344 194.6875 Z M 189.503906 194.578125 C 189.183594 192.285156 190.78125 190.417969 193.070312 190.417969 C 194.828125 190.417969 196.695312 191.753906 197.332031 193.300781 L 218.746094 249.144531 C 222.367188 258.695312 230.410156 259.867188 236.699219 251.867188 L 285.648438 189.136719 C 287.355469 186.898438 287.941406 183.003906 286.875 180.390625 L 286.234375 178.84375 C 285.222656 176.230469 282.082031 173.828125 279.3125 173.457031 L 277.714844 173.191406 C 274.890625 172.816406 271.214844 174.363281 269.5625 176.496094 L 238.828125 215.863281 L 231.476562 225.304688 L 211.074219 172.015625 C 208.464844 165.242188 200.371094 159.695312 193.070312 159.695312 L 101.984375 159.695312 C 94.6875 159.695312 86.589844 165.296875 83.980469 172.121094 L 49.785156 261.359375 C 48.71875 264.027344 49.355469 267.976562 51.113281 270.164062 L 52.128906 271.441406 C 53.886719 273.628906 57.558594 275.015625 60.332031 274.589844 L 61.980469 274.324219 C 64.75 273.894531 67.789062 271.496094 68.800781 268.828125 L 97.722656 193.351562 C 98.363281 191.753906 100.28125 190.417969 101.984375 190.417969 C 104.277344 190.417969 105.875 192.179688 105.554688 194.578125 L 92.609375 292.832031 L 202.5 292.832031 Z M 229.347656 303.074219 L 65.710938 303.074219 L 65.710938 313.316406 L 229.347656 313.316406 Z M 147.527344 134.089844 C 124.941406 134.089844 106.621094 115.742188 106.621094 93.125 C 106.621094 70.507812 124.941406 52.160156 147.527344 52.160156 C 170.113281 52.160156 188.4375 70.507812 188.4375 93.125 C 188.4375 115.742188 170.113281 134.089844 147.527344 134.089844 Z M 147.527344 123.851562 C 164.46875 123.851562 178.210938 110.089844 178.210938 93.125 C 178.210938 76.164062 164.46875 62.402344 147.527344 62.402344 C 130.589844 62.402344 116.847656 76.164062 116.847656 93.125 C 116.847656 110.089844 130.589844 123.851562 147.527344 123.851562 Z M 147.527344 123.851562 " fill-opacity="1" fill-rule="evenodd"/></svg>