<svg xmlns="http://www.w3.org/2000/svg" xmlns:xlink="http://www.w3.org/1999/xlink" width="500" zoomAndPan="magnify" viewBox="0 0 375 374.999991" height="500" preserveAspectRatio="xMidYMid meet" version="1.0"><defs><clipPath id="204ef6887f"><path d="M 37.5 37.5 L 337.5 37.5 L 337.5 337.5 L 37.5 337.5 Z M 37.5 37.5 " clip-rule="nonzero"/></clipPath><clipPath id="1fc9b6030c"><path d="M 190 190 L 337.5 190 L 337.5 337.5 L 190 337.5 Z M 190 190 " clip-rule="nonzero"/></clipPath></defs><g clip-path="url(#204ef6887f)"><path fill="#145da0" d="M 187.367188 318.195312 C 115.109375 318.195312 56.53125 259.625 56.53125 187.367188 C 56.53125 115.109375 115.109375 56.53125 187.367188 56.53125 C 259.625 56.53125 318.199219 115.109375 318.199219 187.367188 C 318.199219 192.652344 322.488281 196.9375 327.773438 196.9375 C 333.054688 196.9375 337.34375 192.648438 337.34375 187.367188 C 337.34375 104.539062 270.195312 37.386719 187.367188 37.386719 C 104.539062 37.386719 37.390625 104.539062 37.390625 187.367188 C 37.390625 270.195312 104.539062 337.34375 187.367188 337.34375 C 192.652344 337.34375 196.9375 333.054688 196.9375 327.773438 C 196.9375 322.488281 192.652344 318.195312 187.367188 318.195312 Z M 187.367188 318.195312 " fill-opacity="1" fill-rule="nonzero"/></g><path fill="#145da0" d="M 177.792969 85.253906 L 177.792969 190.554688 L 123.542969 190.554688 C 118.261719 190.554688 113.972656 194.84375 113.972656 200.125 C 113.972656 205.417969 118.265625 209.703125 123.542969 209.703125 L 187.367188 209.703125 C 192.652344 209.703125 196.9375 205.414062 196.9375 200.125 L 196.9375 85.253906 C 196.9375 79.964844 192.648438 75.679688 187.367188 75.679688 C 182.082031 75.679688 177.792969 79.96875 177.792969 85.253906 Z M 177.792969 85.253906 " fill-opacity="1" fill-rule="nonzero"/><path fill="#145da0" d="M 299.253906 235.230469 C 295.039062 232.046875 289.035156 232.882812 285.84375 237.097656 L 255.339844 277.453125 L 233.703125 261.09375 C 229.492188 257.914062 223.484375 258.746094 220.296875 262.964844 C 217.105469 267.183594 217.941406 273.191406 222.152344 276.375 L 251.421875 298.503906 C 255.636719 301.691406 261.644531 300.855469 264.835938 296.632812 L 301.113281 248.644531 C 304.304688 244.425781 303.46875 238.417969 299.253906 235.230469 Z M 299.253906 235.230469 " fill-opacity="1" fill-rule="nonzero"/><g clip-path="url(#1fc9b6030c)"><path fill="#145da0" d="M 263.949219 190.554688 C 223.414062 190.554688 190.554688 223.410156 190.554688 263.949219 C 190.554688 304.488281 223.410156 337.34375 263.949219 337.34375 C 304.484375 337.34375 337.34375 304.488281 337.34375 263.949219 C 337.34375 223.410156 304.488281 190.554688 263.949219 190.554688 Z M 263.949219 318.195312 C 233.988281 318.195312 209.703125 293.917969 209.703125 263.949219 C 209.703125 233.988281 233.984375 209.703125 263.949219 209.703125 C 293.914062 209.703125 318.199219 233.984375 318.199219 263.949219 C 318.199219 293.917969 293.914062 318.195312 263.949219 318.195312 Z M 263.949219 318.195312 " fill-opacity="1" fill-rule="nonzero"/></g></svg>